<?xml version="1.0" standalone="no"?>
<svg xmlns:xlink="http://www.w3.org/1999/xlink" id="wave" style="transform:rotate(0deg); transition: 0.3s" viewBox="0 0 1440 190" version="1.1" xmlns="http://www.w3.org/2000/svg"><defs><linearGradient id="sw-gradient-0" x1="0" x2="0" y1="1" y2="0"><stop stop-color="rgba(178, 234, 255, 1)" offset="0%"/><stop stop-color="rgba(178, 234, 255, 1)" offset="100%"/></linearGradient></defs><path style="transform:translate(0, 0px); opacity:1" fill="url(#sw-gradient-0)" d="M0,114L60,101.3C120,89,240,63,360,53.8C480,44,600,51,720,69.7C840,89,960,120,1080,110.8C1200,101,1320,51,1440,50.7C1560,51,1680,101,1800,114C1920,127,2040,101,2160,82.3C2280,63,2400,51,2520,47.5C2640,44,2760,51,2880,44.3C3000,38,3120,19,3240,15.8C3360,13,3480,25,3600,28.5C3720,32,3840,25,3960,25.3C4080,25,4200,32,4320,53.8C4440,76,4560,114,4680,110.8C4800,108,4920,63,5040,44.3C5160,25,5280,32,5400,44.3C5520,57,5640,76,5760,79.2C5880,82,6000,70,6120,66.5C6240,63,6360,70,6480,63.3C6600,57,6720,38,6840,34.8C6960,32,7080,44,7200,60.2C7320,76,7440,95,7560,88.7C7680,82,7800,51,7920,47.5C8040,44,8160,70,8280,82.3C8400,95,8520,95,8580,95L8640,95L8640,190L8580,190C8520,190,8400,190,8280,190C8160,190,8040,190,7920,190C7800,190,7680,190,7560,190C7440,190,7320,190,7200,190C7080,190,6960,190,6840,190C6720,190,6600,190,6480,190C6360,190,6240,190,6120,190C6000,190,5880,190,5760,190C5640,190,5520,190,5400,190C5280,190,5160,190,5040,190C4920,190,4800,190,4680,190C4560,190,4440,190,4320,190C4200,190,4080,190,3960,190C3840,190,3720,190,3600,190C3480,190,3360,190,3240,190C3120,190,3000,190,2880,190C2760,190,2640,190,2520,190C2400,190,2280,190,2160,190C2040,190,1920,190,1800,190C1680,190,1560,190,1440,190C1320,190,1200,190,1080,190C960,190,840,190,720,190C600,190,480,190,360,190C240,190,120,190,60,190L0,190Z"/><defs><linearGradient id="sw-gradient-1" x1="0" x2="0" y1="1" y2="0"><stop stop-color="rgba(229, 248, 255, 1)" offset="0%"/><stop stop-color="rgba(229, 248, 255, 1)" offset="100%"/></linearGradient></defs><path style="transform:translate(0, 50px); opacity:1" fill="url(#sw-gradient-1)" d="M0,38L60,38C120,38,240,38,360,47.5C480,57,600,76,720,72.8C840,70,960,44,1080,50.7C1200,57,1320,95,1440,120.3C1560,146,1680,158,1800,139.3C1920,120,2040,70,2160,53.8C2280,38,2400,57,2520,76C2640,95,2760,114,2880,110.8C3000,108,3120,82,3240,66.5C3360,51,3480,44,3600,57C3720,70,3840,101,3960,123.5C4080,146,4200,158,4320,136.2C4440,114,4560,57,4680,44.3C4800,32,4920,63,5040,76C5160,89,5280,82,5400,85.5C5520,89,5640,101,5760,107.7C5880,114,6000,114,6120,123.5C6240,133,6360,152,6480,161.5C6600,171,6720,171,6840,148.8C6960,127,7080,82,7200,82.3C7320,82,7440,127,7560,120.3C7680,114,7800,57,7920,47.5C8040,38,8160,76,8280,79.2C8400,82,8520,51,8580,34.8L8640,19L8640,190L8580,190C8520,190,8400,190,8280,190C8160,190,8040,190,7920,190C7800,190,7680,190,7560,190C7440,190,7320,190,7200,190C7080,190,6960,190,6840,190C6720,190,6600,190,6480,190C6360,190,6240,190,6120,190C6000,190,5880,190,5760,190C5640,190,5520,190,5400,190C5280,190,5160,190,5040,190C4920,190,4800,190,4680,190C4560,190,4440,190,4320,190C4200,190,4080,190,3960,190C3840,190,3720,190,3600,190C3480,190,3360,190,3240,190C3120,190,3000,190,2880,190C2760,190,2640,190,2520,190C2400,190,2280,190,2160,190C2040,190,1920,190,1800,190C1680,190,1560,190,1440,190C1320,190,1200,190,1080,190C960,190,840,190,720,190C600,190,480,190,360,190C240,190,120,190,60,190L0,190Z"/></svg>