<?xml version="1.0" standalone="no"?>
<svg xmlns:xlink="http://www.w3.org/1999/xlink" id="wave" style="transform:rotate(180deg); transition: 0.3s" viewBox="0 0 1440 190" version="1.1" xmlns="http://www.w3.org/2000/svg"><defs><linearGradient id="sw-gradient-0" x1="0" x2="0" y1="1" y2="0"><stop stop-color="rgba(183.799, 235.83, 255, 1)" offset="0%"/><stop stop-color="rgba(255, 255, 255, 1)" offset="100%"/></linearGradient></defs><path style="transform:translate(0, 0px); opacity:1" fill="url(#sw-gradient-0)" d="M0,76L60,79.2C120,82,240,89,360,91.8C480,95,600,95,720,104.5C840,114,960,133,1080,120.3C1200,108,1320,63,1440,53.8C1560,44,1680,70,1800,72.8C1920,76,2040,57,2160,57C2280,57,2400,76,2520,76C2640,76,2760,57,2880,41.2C3000,25,3120,13,3240,19C3360,25,3480,51,3600,72.8C3720,95,3840,114,3960,129.8C4080,146,4200,158,4320,152C4440,146,4560,120,4680,101.3C4800,82,4920,70,5040,76C5160,82,5280,108,5400,126.7C5520,146,5640,158,5760,158.3C5880,158,6000,146,6120,142.5C6240,139,6360,146,6480,139.3C6600,133,6720,114,6840,91.8C6960,70,7080,44,7200,47.5C7320,51,7440,82,7560,101.3C7680,120,7800,127,7920,114C8040,101,8160,70,8280,53.8C8400,38,8520,38,8580,38L8640,38L8640,190L8580,190C8520,190,8400,190,8280,190C8160,190,8040,190,7920,190C7800,190,7680,190,7560,190C7440,190,7320,190,7200,190C7080,190,6960,190,6840,190C6720,190,6600,190,6480,190C6360,190,6240,190,6120,190C6000,190,5880,190,5760,190C5640,190,5520,190,5400,190C5280,190,5160,190,5040,190C4920,190,4800,190,4680,190C4560,190,4440,190,4320,190C4200,190,4080,190,3960,190C3840,190,3720,190,3600,190C3480,190,3360,190,3240,190C3120,190,3000,190,2880,190C2760,190,2640,190,2520,190C2400,190,2280,190,2160,190C2040,190,1920,190,1800,190C1680,190,1560,190,1440,190C1320,190,1200,190,1080,190C960,190,840,190,720,190C600,190,480,190,360,190C240,190,120,190,60,190L0,190Z"/><defs><linearGradient id="sw-gradient-1" x1="0" x2="0" y1="1" y2="0"><stop stop-color="rgba(229, 248, 255, 1)" offset="0%"/><stop stop-color="rgba(244.273, 252.112, 255, 1)" offset="100%"/></linearGradient></defs><path style="transform:translate(0, 50px); opacity:0.9" fill="url(#sw-gradient-1)" d="M0,76L60,82.3C120,89,240,101,360,88.7C480,76,600,38,720,34.8C840,32,960,63,1080,88.7C1200,114,1320,133,1440,117.2C1560,101,1680,51,1800,41.2C1920,32,2040,63,2160,82.3C2280,101,2400,108,2520,120.3C2640,133,2760,152,2880,158.3C3000,165,3120,158,3240,142.5C3360,127,3480,101,3600,98.2C3720,95,3840,114,3960,107.7C4080,101,4200,70,4320,63.3C4440,57,4560,76,4680,69.7C4800,63,4920,32,5040,19C5160,6,5280,13,5400,28.5C5520,44,5640,70,5760,91.8C5880,114,6000,133,6120,145.7C6240,158,6360,165,6480,161.5C6600,158,6720,146,6840,136.2C6960,127,7080,120,7200,107.7C7320,95,7440,76,7560,57C7680,38,7800,19,7920,22.2C8040,25,8160,51,8280,57C8400,63,8520,51,8580,44.3L8640,38L8640,190L8580,190C8520,190,8400,190,8280,190C8160,190,8040,190,7920,190C7800,190,7680,190,7560,190C7440,190,7320,190,7200,190C7080,190,6960,190,6840,190C6720,190,6600,190,6480,190C6360,190,6240,190,6120,190C6000,190,5880,190,5760,190C5640,190,5520,190,5400,190C5280,190,5160,190,5040,190C4920,190,4800,190,4680,190C4560,190,4440,190,4320,190C4200,190,4080,190,3960,190C3840,190,3720,190,3600,190C3480,190,3360,190,3240,190C3120,190,3000,190,2880,190C2760,190,2640,190,2520,190C2400,190,2280,190,2160,190C2040,190,1920,190,1800,190C1680,190,1560,190,1440,190C1320,190,1200,190,1080,190C960,190,840,190,720,190C600,190,480,190,360,190C240,190,120,190,60,190L0,190Z"/></svg>