<?xml version="1.0" standalone="no"?>
<svg xmlns:xlink="http://www.w3.org/1999/xlink" id="wave" style="transform:rotate(180deg); transition: 0.3s" viewBox="0 0 1440 190" version="1.1" xmlns="http://www.w3.org/2000/svg"><defs><linearGradient id="sw-gradient-0" x1="0" x2="0" y1="1" y2="0"><stop stop-color="rgba(255, 235, 232, 1)" offset="0%"/><stop stop-color="rgba(255, 154.272, 139.163, 1)" offset="100%"/></linearGradient></defs><path style="transform:translate(0, 0px); opacity:1" fill="url(#sw-gradient-0)" d="M0,114L60,123.5C120,133,240,152,360,136.2C480,120,600,70,720,50.7C840,32,960,44,1080,63.3C1200,82,1320,108,1440,120.3C1560,133,1680,133,1800,129.8C1920,127,2040,120,2160,104.5C2280,89,2400,63,2520,66.5C2640,70,2760,101,2880,107.7C3000,114,3120,95,3240,82.3C3360,70,3480,63,3600,53.8C3720,44,3840,32,3960,25.3C4080,19,4200,19,4320,19C4440,19,4560,19,4680,28.5C4800,38,4920,57,5040,76C5160,95,5280,114,5400,101.3C5520,89,5640,44,5760,22.2C5880,0,6000,0,6120,28.5C6240,57,6360,114,6480,117.2C6600,120,6720,70,6840,57C6960,44,7080,70,7200,76C7320,82,7440,70,7560,63.3C7680,57,7800,57,7920,53.8C8040,51,8160,44,8280,60.2C8400,76,8520,114,8580,133L8640,152L8640,190L8580,190C8520,190,8400,190,8280,190C8160,190,8040,190,7920,190C7800,190,7680,190,7560,190C7440,190,7320,190,7200,190C7080,190,6960,190,6840,190C6720,190,6600,190,6480,190C6360,190,6240,190,6120,190C6000,190,5880,190,5760,190C5640,190,5520,190,5400,190C5280,190,5160,190,5040,190C4920,190,4800,190,4680,190C4560,190,4440,190,4320,190C4200,190,4080,190,3960,190C3840,190,3720,190,3600,190C3480,190,3360,190,3240,190C3120,190,3000,190,2880,190C2760,190,2640,190,2520,190C2400,190,2280,190,2160,190C2040,190,1920,190,1800,190C1680,190,1560,190,1440,190C1320,190,1200,190,1080,190C960,190,840,190,720,190C600,190,480,190,360,190C240,190,120,190,60,190L0,190Z"/><defs><linearGradient id="sw-gradient-1" x1="0" x2="0" y1="1" y2="0"><stop stop-color="rgba(255, 235, 232, 1)" offset="0%"/><stop stop-color="rgba(255, 235, 232, 1)" offset="100%"/></linearGradient></defs><path style="transform:translate(0, 50px); opacity:0.9" fill="url(#sw-gradient-1)" d="M0,152L60,139.3C120,127,240,101,360,82.3C480,63,600,51,720,63.3C840,76,960,114,1080,120.3C1200,127,1320,101,1440,101.3C1560,101,1680,127,1800,129.8C1920,133,2040,114,2160,114C2280,114,2400,133,2520,120.3C2640,108,2760,63,2880,66.5C3000,70,3120,120,3240,117.2C3360,114,3480,57,3600,28.5C3720,0,3840,0,3960,25.3C4080,51,4200,101,4320,123.5C4440,146,4560,139,4680,120.3C4800,101,4920,70,5040,69.7C5160,70,5280,101,5400,104.5C5520,108,5640,82,5760,63.3C5880,44,6000,32,6120,31.7C6240,32,6360,44,6480,53.8C6600,63,6720,70,6840,72.8C6960,76,7080,76,7200,91.8C7320,108,7440,139,7560,129.8C7680,120,7800,70,7920,53.8C8040,38,8160,57,8280,72.8C8400,89,8520,101,8580,107.7L8640,114L8640,190L8580,190C8520,190,8400,190,8280,190C8160,190,8040,190,7920,190C7800,190,7680,190,7560,190C7440,190,7320,190,7200,190C7080,190,6960,190,6840,190C6720,190,6600,190,6480,190C6360,190,6240,190,6120,190C6000,190,5880,190,5760,190C5640,190,5520,190,5400,190C5280,190,5160,190,5040,190C4920,190,4800,190,4680,190C4560,190,4440,190,4320,190C4200,190,4080,190,3960,190C3840,190,3720,190,3600,190C3480,190,3360,190,3240,190C3120,190,3000,190,2880,190C2760,190,2640,190,2520,190C2400,190,2280,190,2160,190C2040,190,1920,190,1800,190C1680,190,1560,190,1440,190C1320,190,1200,190,1080,190C960,190,840,190,720,190C600,190,480,190,360,190C240,190,120,190,60,190L0,190Z"/></svg>